ply
format ascii 1.0
element vertex 1996
property float32 x
property float32 y
property float32 z
end_header
-0.0000 -21.6172 -3.8117
8.9982 -6.1744 -1.9242
19.9805 -12.6800 -4.1727
19.9702 -11.6897 -4.0802
19.9603 -10.7411 -3.9968
20.1126 -9.9091 -3.9535
20.1033 -9.0227 -3.8854
19.9327 -8.0996 -3.7938
20.0857 -7.3333 -3.7703
20.0773 -6.5235 -3.7224
19.9075 -5.6869 -3.6507
21.3490 -5.2777 -3.8777
24.3261 -5.0947 -4.3824
24.3167 -4.1877 -4.3508
24.3073 -3.2927 -4.3252
24.2981 -2.4069 -4.3054
24.2889 -1.5281 -4.2913
22.3722 -0.6026 -3.9463
22.3638 0.2007 -3.9435
22.3554 1.0040 -3.9458
22.3470 1.8092 -3.9533
28.5084 3.3418 -5.0612
28.4975 4.3826 -5.0840
46.8923 8.9452 -8.4175
47.6656 10.8794 -8.6209
45.9349 14.0187 -8.4683
34.3730 11.8548 -6.4112
44.4901 17.1543 -8.4077
35.0101 14.9640 -6.7135
35.1679 16.5487 -6.8533
35.4784 18.2781 -7.0372
35.8515 20.1307 -7.2500
36.1682 22.0524 -7.4694
36.6366 24.1836 -7.7405
36.5400 26.0500 -7.9127
37.2868 28.6554 -8.2919
6.9223 17.4838 -3.3157
6.1396 17.2967 -3.2363
5.1156 31.3864 -5.6073
-32.5897 35.9774 -8.5595
-33.2981 34.2072 -8.4175
-35.3610 33.8086 -8.6264
-35.6250 31.6932 -8.4077
-38.4184 29.5251 -8.5436
-40.4974 26.7321 -8.5562
-40.7118 24.8227 -8.4077
-40.7444 22.8781 -8.2394
-40.3849 20.8060 -8.0104
-43.1948 20.3258 -8.4175
-12.4912 2.3828 -2.2422
-12.3017 -17.5873 -3.7844
-11.3771 -20.6948 -4.1641
-8.7163 -20.9101 -3.9945
-0.0000 -21.6172 -3.6863
8.9980 -6.1743 -1.8609
19.9805 -12.6800 -4.0354
19.9702 -11.6897 -3.9460
19.9603 -10.7411 -3.8653
20.1126 -9.9091 -3.8234
20.1033 -9.0228 -3.7576
19.9327 -8.0996 -3.6690
20.0857 -7.3333 -3.6463
20.0773 -6.5235 -3.5999
19.9075 -5.6869 -3.5306
21.3490 -5.2777 -3.7502
24.3261 -5.0947 -4.2383
24.3167 -4.1877 -4.2077
24.3073 -3.2927 -4.1829
24.2981 -2.4069 -4.1638
24.2889 -1.5281 -4.1501
22.3722 -0.6026 -3.8165
22.3638 0.2007 -3.8138
22.3554 1.0040 -3.8161
22.3470 1.8092 -3.8233
28.5084 3.3418 -4.8948
28.4975 4.3826 -4.9167
34.3730 11.8548 -6.2004
34.9181 14.9247 -6.4756
35.1666 16.5481 -6.6276
35.4610 18.2692 -6.8024
36.1683 22.0524 -7.2237
36.9605 26.3497 -7.7405
36.9294 28.3808 -7.9424
6.8402 17.2764 -3.1686
6.0931 17.1656 -3.1061
5.1280 31.4625 -5.4360
-26.4833 39.3476 -8.0881
-40.7889 26.9246 -8.3344
-40.4291 24.6504 -8.0747
-40.4373 22.7056 -7.9084
-40.5333 20.8824 -7.7754
-12.4908 2.3828 -2.1684
-12.3014 -17.5868 -3.6599
-11.3771 -20.6948 -4.0272
-9.5416 -20.7585 -3.8959
8.9978 -6.1741 -1.7977
19.9805 -12.6800 -3.8985
19.9702 -11.6897 -3.8121
19.9603 -10.7411 -3.7341
20.1126 -9.9091 -3.6936
20.1033 -9.0228 -3.6301
19.9327 -8.0996 -3.5444
20.0857 -7.3333 -3.5225
20.0773 -6.5235 -3.4777
19.9075 -5.6869 -3.4107
21.3490 -5.2777 -3.6229
24.3261 -5.0947 -4.0944
24.3167 -4.1877 -4.0649
24.3073 -3.2927 -4.0409
24.2981 -2.4069 -4.0224
24.2889 -1.5281 -4.0093
22.3722 -0.6026 -3.6869
22.3638 0.2007 -3.6844
22.3554 1.0040 -3.6865
22.3470 1.8092 -3.6935
28.5084 3.3418 -4.7286
28.4975 4.3826 -4.7499
34.3104 11.8331 -5.9790
34.7411 13.3955 -6.1339
34.9288 14.9293 -6.2577
35.3078 16.6146 -6.4284
35.4432 18.2600 -6.5682
36.4427 24.0557 -7.1936
37.2554 28.6313 -7.7405
6.8102 17.2006 -3.0476
6.0669 17.0918 -2.9878
5.3082 32.5679 -5.4360
4.5526 36.0372 -5.9839
-25.5270 41.0336 -7.9612
-40.4527 26.7026 -7.9851
-40.9874 24.9908 -7.9084
-40.5333 20.8824 -7.5115
-12.4905 2.3827 -2.0948
-12.3011 -17.5864 -3.5356
-11.3771 -20.6948 -3.8905
-9.5710 -20.8226 -3.7753
8.9976 -6.1740 -1.7346
19.9805 -12.6800 -3.7617
19.9702 -11.6897 -3.6784
19.9603 -10.7411 -3.6032
20.1126 -9.9091 -3.5641
20.1033 -9.0228 -3.5028
19.9327 -8.0996 -3.4201
20.0857 -7.3333 -3.3990
20.0773 -6.5235 -3.3558
19.9075 -5.6869 -3.2911
21.3490 -5.2777 -3.4958
24.3261 -5.0947 -3.9508
24.5604 -4.2297 -3.9616
24.3073 -3.2927 -3.8992
24.6079 -2.4376 -3.9309
24.2889 -1.5281 -3.8686
22.3722 -0.6026 -3.5576
22.3638 0.2007 -3.5551
22.3554 1.0040 -3.5572
22.3470 1.8092 -3.5639
28.5084 3.3418 -4.5628
28.4975 4.3825 -4.5833
34.3104 11.8332 -5.7693
34.7394 13.3949 -5.9185
35.4418 18.2593 -6.3376
36.4325 24.0489 -6.9393
6.7920 17.1547 -2.9329
6.0639 17.0833 -2.8816
4.5526 36.0372 -5.7741
-25.5154 41.0150 -7.6785
-40.7028 22.8547 -7.4204
-40.5333 20.8824 -7.2481
-12.4902 2.3826 -2.0213
-12.3007 -17.5859 -3.4115
-11.3771 -20.6948 -3.7540
-10.4278 -20.6947 -3.6837
8.9974 -6.1739 -1.6716
19.9805 -12.6800 -3.6253
19.9702 -11.6897 -3.5449
19.9603 -10.7411 -3.4724
20.1126 -9.9091 -3.4348
20.1033 -9.0228 -3.3757
19.9327 -8.0996 -3.2961
20.0857 -7.3333 -3.2757
20.0773 -6.5235 -3.2340
19.9075 -5.6869 -3.1717
21.3490 -5.2777 -3.3690
24.3261 -5.0947 -3.8075
24.6268 -4.2411 -3.8282
24.3073 -3.2927 -3.7578
24.6079 -2.4376 -3.7883
24.2889 -1.5281 -3.7283
22.3722 -0.6026 -3.4285
22.3638 0.2007 -3.4262
22.3554 1.0040 -3.4282
22.3470 1.8092 -3.4346
28.5084 3.3418 -4.3972
28.4975 4.3825 -4.4170
34.3104 11.8331 -5.5600
35.6056 18.3437 -6.1359
36.5555 24.1301 -6.7101
36.7673 26.2120 -6.9174
37.2418 28.6209 -7.1954
6.7920 17.1547 -2.8265
6.0639 17.0833 -2.7770
5.7510 18.2556 -2.9321
4.5526 36.0372 -5.5646
-25.5208 41.0237 -7.4015
-40.7045 22.8557 -7.1515
-12.4898 2.3826 -1.9479
-38.0878 -5.1594 -5.8881
-38.0732 -6.5568 -5.9185
-12.3004 -17.5855 -3.2876
-11.3771 -20.6948 -3.6178
-10.4489 -20.7366 -3.5572
9.9462 -26.5017 -4.1735
8.9972 -6.1737 -1.6088
19.9805 -12.6800 -3.4890
19.9702 -11.6897 -3.4117
19.9603 -10.7411 -3.3419
20.1126 -9.9091 -3.3057
20.1033 -9.0228 -3.2488
19.9327 -8.0996 -3.1722
20.0857 -7.3333 -3.1526
20.0773 -6.5235 -3.1125
19.9075 -5.6869 -3.0525
21.3490 -5.2777 -3.2424
24.3261 -5.0947 -3.6644
24.6268 -4.2412 -3.6844
24.3073 -3.2927 -3.6165
24.6079 -2.4376 -3.6459
24.2889 -1.5281 -3.5882
22.3722 -0.6026 -3.2997
22.3638 0.2007 -3.2974
22.3554 1.0040 -3.2993
22.3470 1.8092 -3.3056
28.5084 3.3418 -4.2320
28.4975 4.3826 -4.2510
34.3104 11.8332 -5.3510
34.6733 13.3694 -5.4790
34.9343 14.9316 -5.6014
35.8526 20.1313 -6.0623
36.4185 24.0396 -6.4337
36.7689 26.2132 -6.6577
6.7920 17.1547 -2.7203
6.0639 17.0833 -2.6727
5.7510 18.2556 -2.8219
4.5526 36.0372 -5.3554
-25.5178 41.0188 -7.1224
-40.7032 26.8680 -7.1907
-40.6472 24.7834 -7.0190
-12.4895 2.3825 -1.8746
-38.1957 -5.1740 -5.6829
-38.1811 -6.5754 -5.7122
-38.1052 -7.9804 -5.7400
-38.0435 -9.4047 -5.7779
-38.0282 -10.8634 -5.8311
-38.0127 -12.3511 -5.8929
-12.3001 -17.5850 -3.1640
-11.3388 -20.6251 -3.4701
10.0356 -29.9685 -4.4780
8.9970 -6.1736 -1.5460
19.9805 -12.6800 -3.3530
19.9702 -11.6897 -3.2787
19.9603 -10.7411 -3.2116
20.1126 -9.9091 -3.1768
20.1033 -9.0228 -3.1222
19.9327 -8.0996 -3.0485
20.0857 -7.3333 -3.0297
20.0773 -6.5235 -2.9911
19.9075 -5.6869 -2.9335
21.3490 -5.2777 -3.1160
24.3261 -5.0947 -3.5215
24.6268 -4.2412 -3.5407
24.3073 -3.2927 -3.4755
24.6079 -2.4376 -3.5038
24.2889 -1.5281 -3.4483
22.3722 -0.6026 -3.1711
22.3638 0.2007 -3.1688
22.3554 1.0040 -3.1707
22.3470 1.8092 -3.1767
28.5084 3.3418 -4.0670
28.4975 4.3826 -4.0853
34.3730 11.8548 -5.1518
35.2783 15.0787 -5.4360
35.2076 16.5674 -5.5132
35.9538 20.1880 -5.8425
36.1670 22.0517 -6.0019
36.4200 24.0407 -6.1832
36.7818 26.2224 -6.4004
6.7920 17.1547 -2.6142
6.0639 17.0833 -2.5685
5.7510 18.2556 -2.7119
4.2659 47.3982 -6.7430
2.5542 47.3803 -6.7230
0.8504 47.3626 -6.7118
-0.8500 47.3448 -6.7093
-2.5513 47.3271 -6.7155
-4.2579 47.3092 -6.7303
-5.9743 47.2913 -6.7539
-25.5153 41.0149 -6.8441
-40.6873 26.8575 -6.9077
-40.6489 24.7844 -6.7457
-12.4892 2.3824 -1.8015
-40.4210 6.2162 -5.7946
-40.3007 4.7241 -5.7493
-40.2855 3.2616 -5.7267
-40.2703 1.8086 -5.7116
-40.2552 0.3613 -5.7040
-40.2401 -1.0839 -5.7037
-40.2250 -2.5308 -5.7107
-40.2099 -3.9831 -5.7252
-38.1957 -5.1740 -5.4614
-38.1811 -6.5754 -5.4895
-38.1663 -7.9932 -5.5251
-38.1513 -9.4314 -5.5684
-38.1360 -10.8942 -5.6196
-38.1204 -12.3861 -5.6792
-38.0542 -13.8936 -5.7400
-12.2998 -17.5846 -3.0406
-11.3559 -20.6563 -3.3399
9.8655 -23.6671 -3.4859
8.9968 -6.1734 -1.4834
19.9805 -12.6800 -3.2172
19.9702 -11.6897 -3.1459
19.9603 -10.7411 -3.0816
20.1126 -9.9091 -3.0482
20.1033 -9.0228 -2.9957
19.9327 -8.0996 -2.9250
20.0857 -7.3333 -2.9070
20.0773 -6.5235 -2.8700
19.9075 -5.6869 -2.8147
21.3490 -5.2777 -2.9898
24.3261 -5.0947 -3.3789
24.6268 -4.2411 -3.3973
24.3073 -3.2927 -3.3348
24.6079 -2.4376 -3.3618
24.2889 -1.5281 -3.3086
22.3722 -0.6026 -3.0426
22.3638 0.2007 -3.0405
22.3554 1.0040 -3.0423
22.3470 1.8092 -3.0480
28.5084 3.3418 -3.9023
28.4975 4.3825 -3.9198
34.3730 11.8548 -4.9432
35.5452 18.3126 -5.4360
35.7979 20.1005 -5.5815
6.7920 17.1547 -2.5083
6.0639 17.0833 -2.4645
5.7510 18.2556 -2.6021
11.2843 47.4714 -6.6336
9.4943 47.4528 -6.5791
7.7313 47.4344 -6.5338
5.9901 47.4162 -6.4975
4.2659 47.3982 -6.4699
2.5542 47.3803 -6.4507
0.8504 47.3626 -6.4400
-0.8500 47.3448 -6.4376
-2.5513 47.3271 -6.4435
-4.2579 47.3092 -6.4577
-5.9743 47.2913 -6.4804
-7.7050 47.2733 -6.5116
-9.4548 47.2550 -6.5517
-11.2285 47.2365 -6.6008
-13.0313 47.2177 -6.6593
-14.8687 47.1985 -6.7275
-25.5129 41.0110 -6.5663
-40.6850 26.8559 -6.6275
-40.7137 22.8608 -6.3479
-40.5333 20.8824 -6.1989
-40.5019 13.9685 -5.8245
-40.4851 12.3555 -5.7546
-40.4686 10.7787 -5.6935
-40.4525 9.2330 -5.6410
-12.4889 2.3824 -1.7285
-40.5961 6.2431 -5.5840
-40.4760 4.7446 -5.5404
-40.4607 3.2757 -5.5187
-40.4454 1.8164 -5.5041
-40.4303 0.3629 -5.4967
-40.4151 -1.0886 -5.4965
-40.4000 -2.5417 -5.5033
-40.3847 -4.0004 -5.5172
-38.1957 -5.1740 -5.2402
-38.1811 -6.5754 -5.2672
-38.1663 -7.9932 -5.3013
-38.1513 -9.4314 -5.3428
-38.1360 -10.8942 -5.3920
-38.1204 -12.3861 -5.4492
-38.1045 -13.9119 -5.5148
-12.2995 -17.5841 -2.9173
-11.3771 -20.6948 -3.2106
-14.7211 -43.9604 -6.3026
8.9966 -6.1733 -1.4208
19.9805 -12.6800 -3.0816
19.9702 -11.6897 -3.0133
19.9603 -10.7411 -2.9517
20.1126 -9.9091 -2.9197
20.1033 -9.0228 -2.8695
19.9327 -8.0996 -2.8018
20.0857 -7.3333 -2.7845
20.0773 -6.5235 -2.7490
19.9075 -5.6869 -2.6961
21.3490 -5.2777 -2.8638
24.3261 -5.0947 -3.2365
24.6268 -4.2412 -3.2541
24.3073 -3.2927 -3.1942
24.6079 -2.4376 -3.2202
24.2889 -1.5281 -3.1692
22.3722 -0.6026 -2.9144
22.3638 0.2007 -2.9124
22.3554 1.0040 -2.9141
22.3470 1.8092 -2.9196
28.5084 3.3418 -3.7378
28.4975 4.3825 -3.7546
34.3730 11.8547 -4.7348
36.1189 22.0224 -5.5088
37.2527 28.6292 -6.1182
6.7920 17.1547 -2.4026
6.0639 17.0833 -2.3606
5.7510 18.2556 -2.4924
11.2843 47.4714 -6.3540
9.4943 47.4528 -6.3018
7.7313 47.4344 -6.2585
5.9901 47.4162 -6.2237
4.2659 47.3982 -6.1972
2.5542 47.3803 -6.1789
0.8504 47.3626 -6.1686
-0.8500 47.3448 -6.1663
-2.5513 47.3271 -6.1719
-4.2579 47.3092 -6.1855
-5.9743 47.2913 -6.2073
-7.7050 47.2733 -6.2372
-9.4548 47.2550 -6.2755
-11.2285 47.2365 -6.3226
-13.0313 47.2177 -6.3786
-14.8687 47.1985 -6.4440
-25.5005 40.9910 -6.2865
-40.6867 26.8571 -6.3485
-40.5333 20.8824 -5.9376
-40.6774 14.0291 -5.6032
-40.6605 12.4090 -5.5359
-40.6440 10.8254 -5.4772
-40.6278 9.2730 -5.4266
-12.4885 2.3823 -1.6556
-40.5961 6.2432 -5.3486
-40.4760 4.7446 -5.3069
-40.4607 3.2757 -5.2861
-40.4454 1.8164 -5.2721
-40.4303 0.3629 -5.2651
-40.4151 -1.0886 -5.2648
-40.4000 -2.5417 -5.2713
-40.3847 -4.0004 -5.2847
-38.1957 -5.1740 -5.0193
-38.1811 -6.5754 -5.0452
-38.1663 -7.9932 -5.0779
-38.1513 -9.4314 -5.1176
-38.1360 -10.8942 -5.1648
-38.1204 -12.3861 -5.2195
-38.1045 -13.9119 -5.2824
-12.2992 -17.5837 -2.7943
-11.3771 -20.6948 -3.0753
8.9964 -6.1732 -1.3584
19.9805 -12.6800 -2.9462
19.9702 -11.6897 -2.8809
19.9603 -10.7411 -2.8220
20.1126 -9.9091 -2.7914
19.5183 -8.7602 -2.6635
19.9327 -8.0996 -2.6787
19.5011 -7.1199 -2.5846
20.0773 -6.5235 -2.6282
19.9075 -5.6869 -2.5776
21.3490 -5.2777 -2.7380
24.3261 -5.0947 -3.0943
24.6268 -4.2411 -3.1112
24.3073 -3.2927 -3.0539
24.6079 -2.4376 -3.0787
24.2889 -1.5281 -3.0299
22.3722 -0.6026 -2.7863
22.3638 0.2007 -2.7844
22.3554 1.0040 -2.7860
22.3470 1.8092 -2.7913
28.5084 3.3418 -3.5736
28.4975 4.3825 -3.5896
34.3730 11.8547 -4.5268
36.4606 24.0674 -5.4391
36.8259 26.2537 -5.6306
37.3789 28.7262 -5.8692
6.7920 17.1547 -2.2971
6.0639 17.0833 -2.2569
5.7510 18.2556 -2.3829
11.2843 47.4714 -6.0749
9.4943 47.4528 -6.0249
7.7313 47.4344 -5.9835
5.9901 47.4162 -5.9502
4.2659 47.3982 -5.9249
2.5542 47.3803 -5.9074
0.8504 47.3626 -5.8976
-0.8500 47.3448 -5.8953
-2.5513 47.3271 -5.9007
-4.2579 47.3092 -5.9138
-5.9743 47.2913 -5.9345
-7.7050 47.2733 -5.9632
-9.4548 47.2550 -5.9998
-11.2285 47.2365 -6.0448
-13.0313 47.2177 -6.0983
-14.8687 47.1985 -6.1609
-25.5138 41.0124 -6.0134
-40.6793 22.8415 -5.8083
-40.5333 20.8824 -5.6767
-40.6774 14.0291 -5.3570
-40.6605 12.4090 -5.2927
-40.6440 10.8254 -5.2366
-40.6278 9.2730 -5.1882
-12.4882 2.3823 -1.5828
-40.5961 6.2432 -5.1136
-40.4760 4.7446 -5.0737
-40.3939 3.2703 -5.0455
-40.4454 1.8164 -5.0405
-40.4303 0.3629 -5.0337
-40.4151 -1.0886 -5.0335
-40.3040 -2.5357 -5.0277
-40.2888 -3.9909 -5.0405
-38.1957 -5.1740 -4.7988
-38.1855 -6.5762 -4.8241
-38.1663 -7.9932 -4.8548
-38.1538 -9.4320 -4.8931
-38.1360 -10.8942 -4.9378
-38.1204 -12.3861 -4.9902
-38.1045 -13.9120 -5.0503
-12.2988 -17.5832 -2.6715
-11.3771 -20.6948 -2.9402
8.9962 -6.1730 -1.2960
19.9805 -12.6800 -2.8110
19.9702 -11.6897 -2.7487
19.9603 -10.7411 -2.6925
20.1126 -9.9091 -2.6633
19.5183 -8.7602 -2.5413
19.9327 -8.0996 -2.5557
19.5011 -7.1199 -2.4660
20.0773 -6.5235 -2.5076
19.9075 -5.6869 -2.4593
21.3490 -5.2777 -2.6123
24.3261 -5.0947 -2.9523
24.6268 -4.2412 -2.9684
24.3073 -3.2927 -2.9137
24.6079 -2.4376 -2.9374
24.2889 -1.5281 -2.8909
22.3722 -0.6026 -2.6585
22.3638 0.2007 -2.6566
22.3554 1.0040 -2.6582
22.3470 1.8092 -2.6632
28.5084 3.3418 -3.4096
28.4975 4.3826 -3.4249
34.3730 11.8547 -4.3191
37.2631 26.5655 -5.4360
37.2183 28.6029 -5.5758
6.7920 17.1547 -2.1916
6.0639 17.0833 -2.1533
5.7510 18.2556 -2.2736
11.2843 47.4714 -5.7961
9.4943 47.4528 -5.7484
7.7313 47.4344 -5.7089
5.9901 47.4162 -5.6771
4.2659 47.3982 -5.6530
2.5542 47.3803 -5.6363
0.8504 47.3626 -5.6269
-0.8500 47.3448 -5.6248
-2.5513 47.3271 -5.6299
-4.2579 47.3092 -5.6424
-5.9743 47.2913 -5.6622
-7.7050 47.2733 -5.6895
-9.4548 47.2550 -5.7245
-11.2285 47.2365 -5.7674
-13.0313 47.2177 -5.8185
-14.8687 47.1985 -5.8781
-25.5133 41.0116 -5.7373
-40.7257 26.8828 -5.7965
-40.7020 24.8168 -5.6626
-40.6774 14.0291 -5.1112
-40.6605 12.4090 -5.0498
-40.6440 10.8254 -4.9962
-40.6278 9.2730 -4.9501
-12.4879 2.3822 -1.5101
-40.6415 6.2501 -4.8844
-40.4760 4.7446 -4.8409
-40.5060 3.2794 -4.8273
-40.4454 1.8164 -4.8092
-40.4303 0.3629 -4.8027
-40.4151 -1.0886 -4.8025
-40.4000 -2.5417 -4.8084
-40.3847 -4.0004 -4.8206
-38.1957 -5.1740 -4.5785
-38.2366 -6.5850 -4.6088
-38.1663 -7.9932 -4.6320
-38.2068 -9.4451 -4.6750
-38.1360 -10.8942 -4.7112
-38.1759 -12.4041 -4.7681
-38.1045 -13.9120 -4.8185
-12.2985 -17.5828 -2.5488
-11.3771 -20.6948 -2.8052
8.9960 -6.1729 -1.2337
19.9805 -12.6800 -2.6760
19.9702 -11.6897 -2.6167
19.9603 -10.7411 -2.5632
20.1126 -9.9091 -2.5354
19.5183 -8.7602 -2.4192
19.9327 -8.0996 -2.4330
19.5011 -7.1199 -2.3476
20.0773 -6.5235 -2.3872
19.9075 -5.6869 -2.3412
21.3490 -5.2777 -2.4868
24.3261 -5.0947 -2.8105
24.6268 -4.2411 -2.8258
24.3073 -3.2927 -2.7738
24.6079 -2.4376 -2.7963
24.2889 -1.5281 -2.7520
22.3722 -0.6026 -2.5308
22.3638 0.2007 -2.5290
22.3554 1.0040 -2.5305
22.3470 1.8092 -2.5353
28.5084 3.3418 -3.2458
28.4975 4.3825 -3.2604
34.3730 11.8547 -4.1116
6.7920 17.1547 -2.0864
6.0639 17.0833 -2.0499
5.7510 18.2556 -2.1644
11.2843 47.4714 -5.5177
9.4943 47.4528 -5.4723
7.7313 47.4344 -5.4347
5.9901 47.4162 -5.4044
4.2659 47.3982 -5.3815
2.5542 47.3803 -5.3656
0.8504 47.3626 -5.3566
-0.8500 47.3448 -5.3546
-2.5513 47.3271 -5.3595
-4.2579 47.3092 -5.3714
-5.9743 47.2913 -5.3902
-7.7050 47.2733 -5.4162
-9.4548 47.2550 -5.4495
-11.2285 47.2365 -5.4903
-13.0313 47.2177 -5.5390
-14.8687 47.1985 -5.5958
-25.5127 41.0107 -5.4616
-40.5812 13.9959 -4.8542
-40.6605 12.4090 -4.8072
-40.6440 10.8254 -4.7563
-40.6278 9.2730 -4.7123
-12.4875 2.3821 -1.4376
-40.6415 6.2501 -4.6498
-40.4760 4.7446 -4.6084
-40.5060 3.2794 -4.5954
-40.4454 1.8164 -4.5782
-40.4303 0.3629 -4.5720
-40.4151 -1.0886 -4.5718
-40.4000 -2.5417 -4.5775
-40.3847 -4.0004 -4.5891
-38.1957 -5.1740 -4.3586
-38.2366 -6.5850 -4.3875
-38.1663 -7.9932 -4.4095
-38.2068 -9.4451 -4.4505
-38.1360 -10.8942 -4.4849
-38.1759 -12.4041 -4.5391
-38.1045 -13.9120 -4.5871
-12.2982 -17.5823 -2.4263
-11.3771 -20.6948 -2.6705
8.9958 -6.1728 -1.1715
19.9805 -12.6800 -2.5411
19.9702 -11.6897 -2.4848
19.9603 -10.7411 -2.4340
20.1126 -9.9091 -2.4076
19.5183 -8.7602 -2.2973
19.9327 -8.0996 -2.3104
19.5011 -7.1199 -2.2293
20.0773 -6.5235 -2.2669
19.9075 -5.6869 -2.2232
21.3490 -5.2777 -2.3615
24.3262 -5.0947 -2.6689
24.3167 -4.1877 -2.6496
24.3073 -3.2927 -2.6340
24.2981 -2.4069 -2.6219
24.2889 -1.5281 -2.6133
22.3722 -0.6026 -2.4032
22.3638 0.2007 -2.4016
22.3554 1.0040 -2.4030
22.3470 1.8092 -2.4075
28.5084 3.3418 -3.0822
28.4975 4.3825 -3.0961
34.3730 11.8547 -3.9044
6.7920 17.1547 -1.9812
6.0639 17.0833 -1.9466
5.7510 18.2556 -2.0553
11.2843 47.4714 -5.2396
9.4943 47.4528 -5.1966
7.7313 47.4344 -5.1608
5.9901 47.4162 -5.1321
4.2659 47.3982 -5.1103
2.5542 47.3803 -5.0952
0.8504 47.3626 -5.0867
-0.8500 47.3448 -5.0848
-2.5513 47.3271 -5.0894
-4.2579 47.3092 -5.1007
-5.9743 47.2913 -5.1186
-7.7050 47.2733 -5.1433
-9.4548 47.2550 -5.1749
-11.2285 47.2365 -5.2137
-13.0313 47.2177 -5.2599
-14.8687 47.1985 -5.3138
-25.5122 41.0098 -5.1863
-40.5812 13.9959 -4.6096
-40.6605 12.4090 -4.5650
-40.6440 10.8254 -4.5166
-40.6278 9.2730 -4.4749
-12.4872 2.3821 -1.3651
-40.6415 6.2501 -4.4155
-40.4760 4.7446 -4.3761
-40.5060 3.2794 -4.3638
-40.4454 1.8164 -4.3475
-40.4303 0.3629 -4.3416
-40.4151 -1.0886 -4.3414
-40.4000 -2.5417 -4.3468
-40.3847 -4.0004 -4.3578
-38.1957 -5.1740 -4.1390
-38.2366 -6.5850 -4.1664
-38.1663 -7.9932 -4.1873
-38.2068 -9.4451 -4.2262
-38.1360 -10.8942 -4.2589
-38.1759 -12.4041 -4.3104
-38.1045 -13.9120 -4.3559
-12.2979 -17.5819 -2.3040
-11.3771 -20.6948 -2.5359
8.9956 -6.1726 -1.1094
19.9805 -12.6800 -2.4064
19.9702 -11.6897 -2.3531
19.9603 -10.7411 -2.3050
20.1126 -9.9091 -2.2800
19.5183 -8.7602 -2.1756
19.9327 -8.0996 -2.1879
19.5011 -7.1199 -2.1111
20.0773 -6.5235 -2.1467
19.9075 -5.6869 -2.1054
21.3490 -5.2777 -2.2363
24.3261 -5.0947 -2.5274
24.3167 -4.1877 -2.5092
24.3073 -3.2927 -2.4944
24.2981 -2.4069 -2.4830
24.2889 -1.5281 -2.4748
22.3722 -0.6026 -2.2759
22.3638 0.2007 -2.2743
22.3554 1.0040 -2.2756
22.3470 1.8092 -2.2799
28.5084 3.3418 -2.9189
28.4975 4.3826 -2.9320
34.3730 11.8548 -3.6975
6.7920 17.1547 -1.8762
6.0639 17.0833 -1.8434
5.7510 18.2556 -1.9464
11.2843 47.4714 -4.9619
9.4943 47.4528 -4.9211
7.7313 47.4344 -4.8873
5.9901 47.4162 -4.8601
4.2659 47.3982 -4.8394
2.5542 47.3803 -4.8251
0.8504 47.3626 -4.8171
-0.8500 47.3448 -4.8153
-2.5513 47.3271 -4.8197
-4.2579 47.3092 -4.8303
-5.9743 47.2913 -4.8473
-7.7050 47.2733 -4.8707
-9.4548 47.2550 -4.9006
-11.2285 47.2365 -4.9373
-13.0313 47.2177 -4.9811
-14.8687 47.1985 -5.0321
-25.5116 41.0089 -4.9113
-40.5812 13.9959 -4.3652
-40.6605 12.4090 -4.3230
-40.6440 10.8254 -4.2772
-40.6278 9.2730 -4.2377
-12.4869 2.3820 -1.2927
-40.6415 6.2501 -4.1814
-40.4760 4.7446 -4.1442
-40.5060 3.2794 -4.1325
-40.4454 1.8164 -4.1170
-40.4303 0.3629 -4.1115
-40.4151 -1.0886 -4.1113
-40.4000 -2.5417 -4.1164
-40.3847 -4.0004 -4.1268
-38.1957 -5.1740 -3.9196
-38.2366 -6.5850 -3.9455
-38.1663 -7.9932 -3.9653
-38.2068 -9.4451 -4.0022
-38.1360 -10.8942 -4.0332
-38.1759 -12.4041 -4.0819
-38.1045 -13.9120 -4.1250
-12.2976 -17.5814 -2.1818
-11.3771 -20.6948 -2.4015
-14.4050 -38.3819 -4.1689
8.9954 -6.1725 -1.0474
19.9805 -12.6800 -2.2719
19.9702 -11.6897 -2.2216
19.9603 -10.7411 -2.1761
20.1126 -9.9091 -2.1525
19.5183 -8.7602 -2.0539
19.9327 -8.0996 -2.0656
19.5011 -7.1199 -1.9931
20.0773 -6.5235 -2.0267
19.9075 -5.6869 -1.9877
21.3490 -5.2777 -2.1113
24.3261 -5.0947 -2.3861
24.3167 -4.1877 -2.3689
24.3073 -3.2927 -2.3549
24.2981 -2.4069 -2.3442
24.2889 -1.5281 -2.3365
22.3722 -0.6026 -2.1486
22.3638 0.2007 -2.1471
22.3554 1.0040 -2.1484
22.3470 1.8092 -2.1524
28.5084 3.3418 -2.7557
28.4975 4.3825 -2.7681
34.3730 11.8548 -3.4908
6.7920 17.1547 -1.7713
6.0639 17.0833 -1.7403
5.7510 18.2556 -1.8375
11.2843 47.4714 -4.6845
9.4943 47.4528 -4.6460
7.7313 47.4344 -4.6140
5.9901 47.4162 -4.5884
4.2659 47.3982 -4.5689
2.5542 47.3803 -4.5553
0.8504 47.3626 -4.5478
-0.8500 47.3448 -4.5461
-2.5513 47.3271 -4.5502
-4.2579 47.3092 -4.5603
-5.9743 47.2913 -4.5763
-7.7050 47.2733 -4.5984
-9.4548 47.2550 -4.6266
-11.2285 47.2365 -4.6613
-13.0313 47.2177 -4.7026
-14.8687 47.1985 -4.7508
-25.5111 41.0080 -4.6366
-40.5812 13.9959 -4.1212
-40.6605 12.4090 -4.0814
-40.6440 10.8254 -4.0381
-40.6278 9.2730 -4.0008
-12.4866 2.3819 -1.2204
-40.6415 6.2501 -3.9477
-40.4760 4.7446 -3.9125
-40.5060 3.2794 -3.9015
-40.4454 1.8164 -3.8869
-40.4303 0.3629 -3.8817
-40.4151 -1.0886 -3.8815
-40.4000 -2.5417 -3.8863
-40.3847 -4.0004 -3.8961
-38.1957 -5.1740 -3.7005
-38.2366 -6.5850 -3.7249
-38.1663 -7.9932 -3.7437
-38.2068 -9.4451 -3.7785
-38.1360 -10.8942 -3.8077
-38.1759 -12.4041 -3.8537
-38.1045 -13.9120 -3.8944
-12.2973 -17.5810 -2.0598
-11.3771 -20.6948 -2.2673
-14.4025 -38.3752 -3.9351
-14.5902 -43.5694 -4.4112
8.9952 -6.1723 -0.9854
19.9805 -12.6800 -2.1375
19.9702 -11.6897 -2.0901
19.9603 -10.7411 -2.0474
20.1126 -9.9091 -2.0252
19.5183 -8.7602 -1.9324
19.9327 -8.0996 -1.9434
19.5011 -7.1199 -1.8752
20.0773 -6.5235 -1.9068
19.9075 -5.6869 -1.8701
21.3490 -5.2777 -1.9864
24.3261 -5.0947 -2.2450
24.3167 -4.1877 -2.2288
24.3073 -3.2927 -2.2156
24.2981 -2.4069 -2.2055
24.2889 -1.5281 -2.1983
22.3722 -0.6026 -2.0215
22.3638 0.2007 -2.0201
22.3554 1.0040 -2.0213
22.3470 1.8092 -2.0251
28.5084 3.3418 -2.5927
28.4975 4.3826 -2.6043
34.0410 11.7402 -3.2525
6.7920 17.1547 -1.6665
6.0639 17.0833 -1.6374
5.7510 18.2556 -1.7288
11.2843 47.4714 -4.4074
9.4943 47.4528 -4.3712
7.7313 47.4344 -4.3411
4.5042 35.6539 -3.2461
4.2659 47.3982 -4.2986
2.5542 47.3803 -4.2859
0.8504 47.3626 -4.2788
-0.8500 47.3448 -4.2772
-2.5513 47.3271 -4.2811
-4.2579 47.3092 -4.2905
-5.9743 47.2913 -4.3056
-7.7050 47.2733 -4.3263
-9.4548 47.2550 -4.3530
-11.2285 47.2365 -4.3856
-13.0313 47.2177 -4.4244
-14.8687 47.1985 -4.4698
-25.5105 41.0071 -4.3623
-40.5812 13.9959 -3.8774
-40.6605 12.4090 -3.8399
-40.6440 10.8254 -3.7992
-40.6278 9.2730 -3.7641
-12.4863 2.3819 -1.1482
-40.6415 6.2501 -3.7141
-40.4760 4.7446 -3.6811
-40.5060 3.2794 -3.6707
-40.4454 1.8164 -3.6570
-40.4303 0.3629 -3.6521
-40.4151 -1.0886 -3.6519
-40.4000 -2.5417 -3.6564
-40.3847 -4.0004 -3.6656
-38.1957 -5.1740 -3.4816
-38.2366 -6.5850 -3.5046
-38.1663 -7.9932 -3.5222
-38.2068 -9.4451 -3.5550
-38.1360 -10.8942 -3.5825
-38.1759 -12.4041 -3.6257
-38.1045 -13.9120 -3.6640
-12.2970 -17.5805 -1.9379
-11.3771 -20.6948 -2.1331
-14.4234 -38.4310 -3.7077
8.9950 -6.1722 -0.9235
19.9805 -12.6800 -2.0033
19.9702 -11.6897 -1.9589
19.9603 -10.7411 -1.9188
20.1126 -9.9091 -1.8980
19.5183 -8.7602 -1.8111
19.9327 -8.0996 -1.8213
19.9241 -7.2743 -1.7955
20.0773 -6.5235 -1.7871
19.9075 -5.6869 -1.7526
21.3490 -5.2777 -1.8617
24.3261 -5.0947 -2.1040
24.3167 -4.1877 -2.0888
24.3073 -3.2927 -2.0765
24.2981 -2.4069 -2.0670
24.2889 -1.5281 -2.0602
22.3722 -0.6026 -1.8946
22.3638 0.2007 -1.8932
22.3554 1.0040 -1.8944
22.3470 1.8092 -1.8979
28.5084 3.3418 -2.4298
28.4975 4.3826 -2.4408
33.7892 11.6534 -3.0257
6.7920 17.1547 -1.5619
6.0639 17.0833 -1.5346
5.7510 18.2556 -1.6203
11.2843 47.4714 -4.1306
9.4943 47.4528 -4.0966
7.7313 47.4344 -4.0684
4.4801 35.4631 -3.0259
4.2659 47.3982 -4.0286
2.5542 47.3803 -4.0167
0.8504 47.3626 -4.0100
-0.8500 47.3448 -4.0085
-2.5513 47.3271 -4.0122
-4.2579 47.3092 -4.0210
-5.9743 47.2913 -4.0352
-7.7050 47.2733 -4.0546
-9.4548 47.2550 -4.0796
-11.2285 47.2365 -4.1101
-13.0313 47.2177 -4.1465
-14.8687 47.1985 -4.1891
-25.5100 41.0062 -4.0882
-40.5812 13.9959 -3.6339
-40.6605 12.4090 -3.5987
-40.6440 10.8254 -3.5606
-40.6278 9.2730 -3.5277
-12.4859 2.3818 -1.0760
-40.5294 6.2329 -3.4713
-40.4760 4.7446 -3.4499
-40.3939 3.2703 -3.4306
-40.4454 1.8164 -3.4273
-40.4303 0.3629 -3.4227
-40.4151 -1.0886 -3.4225
-40.3054 -2.5358 -3.4187
-40.2888 -3.9909 -3.4273
-38.1957 -5.1740 -3.2629
-38.2366 -6.5850 -3.2845
-38.1663 -7.9932 -3.3010
-38.2068 -9.4451 -3.3317
-38.1360 -10.8942 -3.3575
-38.1759 -12.4041 -3.3980
-38.1045 -13.9120 -3.4339
-12.2966 -17.5801 -1.8161
-11.3771 -20.6948 -1.9992
8.9948 -6.1721 -0.8616
19.9805 -12.6800 -1.8691
19.9702 -11.6897 -1.8277
19.9603 -10.7411 -1.7903
20.1126 -9.9091 -1.7709
19.9416 -8.9501 -1.7265
19.9327 -8.0996 -1.6994
19.9241 -7.2743 -1.6753
19.9157 -6.4710 -1.6540
19.9075 -5.6869 -1.6353
21.3490 -5.2777 -1.7370
24.3261 -5.0947 -1.9631
24.3167 -4.1877 -1.9489
24.3073 -3.2927 -1.9374
24.2981 -2.4069 -1.9286
24.2889 -1.5281 -1.9223
22.3722 -0.6026 -1.7677
22.3638 0.2007 -1.7665
22.3554 1.0040 -1.7675
22.3470 1.8092 -1.7709
28.5084 3.3418 -2.2672
28.4975 4.3825 -2.2773
33.7473 11.6389 -2.8196
6.7920 17.1547 -1.4573
6.0639 17.0833 -1.4318
5.7510 18.2556 -1.5118
11.2843 47.4714 -3.8540
9.4943 47.4528 -3.8223
7.7313 47.4344 -3.7960
4.4761 35.4316 -2.8208
4.2659 47.3982 -3.7589
2.5542 47.3803 -3.7478
0.8504 47.3626 -3.7415
-0.8500 47.3448 -3.7401
-2.5513 47.3271 -3.7435
-4.2579 47.3092 -3.7518
-5.9743 47.2913 -3.7650
-7.7050 47.2733 -3.7831
-9.4548 47.2550 -3.8064
-11.2285 47.2365 -3.8349
-13.0313 47.2177 -3.8689
-14.8687 47.1985 -3.9086
-25.5094 41.0053 -3.8144
-40.6774 14.0291 -3.3986
-40.6605 12.4090 -3.3578
-40.6440 10.8254 -3.3222
-40.6278 9.2730 -3.2915
-12.4856 2.3818 -1.0040
-40.5961 6.2431 -3.2442
-40.4760 4.7446 -3.2189
-40.4607 3.2757 -3.2062
-40.4454 1.8164 -3.1978
-40.4303 0.3629 -3.1935
-40.4151 -1.0886 -3.1933
-40.4000 -2.5417 -3.1973
-40.3847 -4.0004 -3.2054
-38.1957 -5.1740 -3.0444
-38.1811 -6.5754 -3.0601
-38.1663 -7.9932 -3.0800
-38.1514 -9.4314 -3.1041
-38.1360 -10.8942 -3.1327
-38.1229 -12.3869 -3.1661
-38.1045 -13.9120 -3.2040
-12.2963 -17.5796 -1.6945
-11.3771 -20.6948 -1.8653
8.9946 -6.1719 -0.7998
19.9805 -12.6800 -1.7351
19.9702 -11.6897 -1.6967
19.9603 -10.7411 -1.6620
19.9507 -9.8293 -1.6307
19.9416 -8.9501 -1.6027
19.9327 -8.0996 -1.5776
19.9241 -7.2743 -1.5552
19.9157 -6.4710 -1.5354
19.9075 -5.6869 -1.5181
21.3490 -5.2777 -1.6125
24.3261 -5.0947 -1.8223
24.3167 -4.1877 -1.8092
24.3073 -3.2927 -1.7985
24.2981 -2.4069 -1.7903
24.2889 -1.5281 -1.7844
22.3722 -0.6026 -1.6410
22.3638 0.2007 -1.6398
22.3554 1.0040 -1.6408
22.3470 1.8092 -1.6439
28.5084 3.3418 -2.1046
28.4975 4.3825 -2.1141
33.7473 11.6389 -2.6174
6.7920 17.1547 -1.3528
6.0639 17.0833 -1.3292
5.7510 18.2556 -1.4034
11.2843 47.4714 -3.5777
9.4943 47.4528 -3.5483
7.7313 47.4344 -3.5239
4.4761 35.4316 -2.6186
4.2659 47.3982 -3.4894
2.5542 47.3803 -3.4791
0.8504 47.3626 -3.4733
-0.8500 47.3448 -3.4720
-2.5513 47.3271 -3.4752
-4.2579 47.3092 -3.4828
-5.9743 47.2913 -3.4951
-7.7050 47.2733 -3.5119
-9.4548 47.2550 -3.5335
-11.2285 47.2365 -3.5600
-13.0313 47.2177 -3.5915
-14.8687 47.1985 -3.6284
-25.5089 41.0044 -3.5408
-40.1398 20.6797 -3.3108
-40.6774 14.0291 -3.1550
-40.6605 12.4090 -3.1171
-40.6440 10.8254 -3.0840
-40.6278 9.2730 -3.0555
-12.4853 2.3817 -0.9320
-40.5961 6.2432 -3.0116
-40.4760 4.7446 -2.9881
-40.4607 3.2757 -2.9764
-40.4454 1.8164 -2.9685
-40.4303 0.3629 -2.9646
-40.4151 -1.0886 -2.9644
-40.4000 -2.5417 -2.9681
-40.3847 -4.0004 -2.9756
-38.1957 -5.1740 -2.8262
-38.1811 -6.5754 -2.8407
-38.1663 -7.9932 -2.8591
-38.1513 -9.4314 -2.8815
-38.1360 -10.8942 -2.9081
-38.1204 -12.3861 -2.9389
-38.1045 -13.9120 -2.9743
-12.2960 -17.5792 -1.5730
-11.3771 -20.6948 -1.7316
8.9944 -6.1718 -0.7381
19.9805 -12.6800 -1.6012
19.9702 -11.6897 -1.5657
19.9603 -10.7411 -1.5337
19.9507 -9.8293 -1.5049
36.7369 -16.4882 -2.7247
19.8893 -8.0820 -1.4527
19.8807 -7.2584 -1.4321
19.8723 -6.4569 -1.4138
19.8642 -5.6745 -1.3979
32.4171 -8.0139 -2.2595
24.3261 -5.0947 -1.6817
24.3167 -4.1877 -1.6696
24.3073 -3.2927 -1.6598
24.2981 -2.4069 -1.6522
24.2889 -1.5281 -1.6467
22.3722 -0.6026 -1.5143
22.3638 0.2007 -1.5133
22.3554 1.0040 -1.5142
22.3470 1.8092 -1.5170
28.5084 3.3418 -1.9422
28.4975 4.3825 -1.9509
33.7473 11.6389 -2.4155
6.7920 17.1547 -1.2484
6.0639 17.0833 -1.2266
5.7510 18.2556 -1.2951
11.2843 47.4714 -3.3016
9.4943 47.4528 -3.2745
7.7313 47.4344 -3.2520
4.4761 35.4316 -2.4165
4.2659 47.3982 -3.2201
2.5542 47.3803 -3.2106
0.8504 47.3626 -3.2053
-0.8500 47.3448 -3.2041
-2.5513 47.3271 -3.2070
-4.2579 47.3092 -3.2141
-5.9743 47.2913 -3.2254
-7.7050 47.2733 -3.2409
-9.4548 47.2550 -3.2608
-11.2285 47.2365 -3.2853
-13.0313 47.2177 -3.3144
-14.8687 47.1985 -3.3484
-25.5083 41.0036 -3.2675
-39.9995 20.6074 -3.0446
-40.6774 14.0291 -2.9115
-40.6605 12.4090 -2.8765
-40.6440 10.8254 -2.8460
-40.6278 9.2730 -2.8197
-12.4850 2.3816 -0.8600
-40.5961 6.2431 -2.7792
-40.4760 4.7446 -2.7575
-40.4607 3.2757 -2.7467
-40.4454 1.8164 -2.7395
-40.4303 0.3629 -2.7358
-40.4151 -1.0886 -2.7356
-40.4000 -2.5417 -2.7390
-40.3847 -4.0004 -2.7460
-38.1957 -5.1740 -2.6081
-38.1811 -6.5754 -2.6215
-38.1663 -7.9932 -2.6385
-38.1513 -9.4314 -2.6592
-38.1360 -10.8942 -2.6837
-38.1204 -12.3861 -2.7121
-38.1045 -13.9120 -2.7448
-12.2957 -17.5788 -1.4515
-11.3771 -20.6948 -1.5980
8.9942 -6.1717 -0.6764
19.9370 -12.6524 -1.4642
19.9267 -11.6642 -1.4318
19.9168 -10.7177 -1.4025
19.9073 -9.8079 -1.3761
19.8981 -8.9306 -1.3525
19.8893 -8.0820 -1.3313
19.8807 -7.2584 -1.3124
19.8723 -6.4569 -1.2957
19.8642 -5.6745 -1.2811
21.2733 -5.2590 -1.3589
24.3261 -5.0947 -1.5412
24.3167 -4.1877 -1.5301
24.3073 -3.2927 -1.5211
24.2981 -2.4069 -1.5141
24.2889 -1.5281 -1.5091
22.3290 -0.6014 -1.3851
22.3206 0.2004 -1.3842
22.3122 1.0020 -1.3850
22.3039 1.8057 -1.3876
28.5084 3.3418 -1.7799
28.4975 4.3825 -1.7879
33.7473 11.6389 -2.2136
38.2223 29.3744 -2.9893
36.9365 30.5565 -2.9726
6.7920 17.1547 -1.1441
6.0639 17.0833 -1.1241
5.7510 18.2556 -1.1869
11.2843 47.4714 -3.0257
9.4943 47.4528 -3.0009
7.7313 47.4344 -2.9802
4.4761 35.4316 -2.2146
4.2659 47.3982 -2.9511
2.5542 47.3803 -2.9423
0.8504 47.3626 -2.9374
-0.8500 47.3448 -2.9363
-2.5513 47.3271 -2.9390
-4.2579 47.3092 -2.9455
-5.9743 47.2913 -2.9559
-7.7050 47.2733 -2.9701
-9.4548 47.2550 -2.9884
-11.2285 47.2365 -3.0108
-13.0313 47.2177 -3.0374
-14.8687 47.1985 -3.0686
-25.5077 41.0027 -2.9944
-39.9995 20.6074 -2.7902
-40.6774 14.0291 -2.6682
-40.6605 12.4090 -2.6362
-40.6440 10.8254 -2.6082
-40.6278 9.2730 -2.5841
-12.4846 2.3816 -0.7881
-40.5961 6.2432 -2.5470
-40.4760 4.7446 -2.5271
-40.4607 3.2757 -2.5172
-40.4454 1.8164 -2.5106
-40.4303 0.3629 -2.5072
-40.4151 -1.0886 -2.5071
-40.4000 -2.5417 -2.5102
-40.3847 -4.0004 -2.5165
-38.1957 -5.1740 -2.3902
-38.1811 -6.5754 -2.4025
-38.1663 -7.9932 -2.4181
-38.1513 -9.4314 -2.4370
-38.1360 -10.8942 -2.4594
-38.1204 -12.3861 -2.4855
-38.1045 -13.9120 -2.5154
-12.2954 -17.5783 -1.3302
-11.3771 -20.6948 -1.4644
8.9940 -6.1715 -0.6148
19.9370 -12.6524 -1.3308
19.9267 -11.6642 -1.3013
19.9168 -10.7177 -1.2747
19.9073 -9.8079 -1.2508
19.8981 -8.9306 -1.2292
19.8893 -8.0820 -1.2100
19.8807 -7.2584 -1.1928
19.8723 -6.4569 -1.1777
19.8642 -5.6745 -1.1643
21.2733 -5.2590 -1.2351
24.2828 -5.0856 -1.3983
24.2734 -4.1803 -1.3882
24.2641 -3.2868 -1.3800
24.2548 -2.4026 -1.3737
24.2457 -1.5254 -1.3692
22.3290 -0.6014 -1.2589
22.3206 0.2004 -1.2580
22.3122 1.0020 -1.2588
22.3039 1.8057 -1.2612
28.5084 3.3418 -1.6177
28.4975 4.3825 -1.6250
33.7473 11.6390 -2.0120
38.2125 29.3669 -2.7162
36.9365 30.5565 -2.7018
6.7920 17.1547 -1.0399
6.0639 17.0833 -1.0217
5.7510 18.2556 -1.0787
11.2843 47.4714 -2.7501
9.4943 47.4528 -2.7275
7.7313 47.4344 -2.7087
4.4761 35.4316 -2.0128
4.2659 47.3982 -2.6822
2.5542 47.3803 -2.6743
0.8504 47.3626 -2.6698
-0.8500 47.3448 -2.6688
-2.5513 47.3271 -2.6712
-4.2579 47.3092 -2.6771
-5.9743 47.2913 -2.6865
-7.7050 47.2733 -2.6995
-9.4548 47.2550 -2.7161
-11.2285 47.2365 -2.7365
-13.0313 47.2177 -2.7607
-14.8687 47.1985 -2.7890
-25.5072 41.0018 -2.7216
-39.9995 20.6074 -2.5360
-40.6774 14.0291 -2.4251
-40.6605 12.4090 -2.3960
-40.6440 10.8254 -2.3706
-40.6278 9.2730 -2.3487
-12.4843 2.3815 -0.7163
-40.5961 6.2431 -2.3149
-40.4760 4.7446 -2.2969
-40.4607 3.2757 -2.2878
-40.4454 1.8164 -2.2818
-40.4303 0.3629 -2.2788
-40.4151 -1.0886 -2.2786
-40.4000 -2.5417 -2.2815
-40.3847 -4.0004 -2.2872
-38.1957 -5.1740 -2.1724
-38.1811 -6.5754 -2.1836
-38.1663 -7.9932 -2.1977
-38.1513 -9.4314 -2.2150
-38.1360 -10.8942 -2.2353
-38.1204 -12.3861 -2.2591
-38.1045 -13.9120 -2.2862
-12.2951 -17.5779 -1.2090
-11.3771 -20.6948 -1.3310
8.9938 -6.1714 -0.5532
19.9370 -12.6524 -1.1975
19.9267 -11.6642 -1.1710
19.9168 -10.7177 -1.1470
19.9073 -9.8079 -1.1255
19.8981 -8.9306 -1.1061
19.8893 -8.0820 -1.0888
19.8807 -7.2584 -1.0733
19.8723 -6.4569 -1.0597
19.8642 -5.6745 -1.0477
21.2733 -5.2590 -1.1113
24.2828 -5.0856 -1.2582
24.2734 -4.1803 -1.2491
24.2641 -3.2868 -1.2418
24.2548 -2.4026 -1.2361
24.2457 -1.5254 -1.2320
22.3290 -0.6014 -1.1328
22.3206 0.2003 -1.1320
22.3122 1.0020 -1.1327
22.3039 1.8057 -1.1348
28.4652 3.3367 -1.4535
28.4544 4.3759 -1.4600
33.7473 11.6389 -1.8104
38.2125 29.3669 -2.4441
36.9365 30.5565 -2.4311
6.7920 17.1547 -0.9357
6.0639 17.0833 -0.9193
5.7510 18.2556 -0.9707
11.2843 47.4714 -2.4746
9.4943 47.4528 -2.4542
7.7313 47.4344 -2.4373
4.4761 35.4316 -1.8112
4.2659 47.3982 -2.4135
2.5542 47.3803 -2.4063
0.8504 47.3626 -2.4023
-0.8500 47.3448 -2.4014
-2.5513 47.3271 -2.4036
-4.2579 47.3092 -2.4090
-5.9743 47.2913 -2.4174
-7.7050 47.2733 -2.4291
-9.4548 47.2550 -2.4440
-11.2285 47.2365 -2.4623
-13.0313 47.2177 -2.4841
-14.8687 47.1985 -2.5096
-25.5066 41.0009 -2.4489
-39.9995 20.6074 -2.2819
-40.6774 14.0291 -2.1822
-40.6605 12.4090 -2.1560
-40.6440 10.8254 -2.1331
-40.6278 9.2730 -2.1134
-12.4840 2.3815 -0.6445
-40.5961 6.2432 -2.0830
-40.4760 4.7446 -2.0668
-40.4607 3.2757 -2.0586
-40.4454 1.8164 -2.0532
-40.4303 0.3629 -2.0505
-40.4151 -1.0886 -2.0504
-40.4000 -2.5417 -2.0529
-40.3847 -4.0004 -2.0581
-38.1957 -5.1740 -1.9548
-38.1811 -6.5754 -1.9648
-38.1663 -7.9932 -1.9776
-38.1513 -9.4314 -1.9931
-38.1360 -10.8942 -2.0114
-38.1204 -12.3861 -2.0327
-38.1045 -13.9120 -2.0572
-12.2948 -17.5774 -1.0879
-11.3771 -20.6948 -1.1977
8.9936 -6.1713 -0.4916
19.9370 -12.6524 -1.0643
19.9267 -11.6642 -1.0407
19.9168 -10.7177 -1.0194
19.9073 -9.8079 -1.0002
19.8981 -8.9306 -0.9830
19.8893 -8.0820 -0.9676
19.8807 -7.2584 -0.9539
19.8723 -6.4569 -0.9418
19.8642 -5.6745 -0.9311
21.2733 -5.2590 -0.9877
24.2828 -5.0856 -1.1182
24.2734 -4.1803 -1.1101
24.2641 -3.2868 -1.1036
24.2548 -2.4026 -1.0985
24.2457 -1.5254 -1.0949
22.3290 -0.6014 -1.0068
22.3206 0.2003 -1.0061
22.3122 1.0020 -1.0067
22.3039 1.8057 -1.0086
28.4652 3.3367 -1.2917
28.4544 4.3759 -1.2975
33.7473 11.6390 -1.6090
38.2125 29.3669 -2.1722
36.9365 30.5565 -2.1606
6.7920 17.1547 -0.8316
6.0639 17.0833 -0.8170
5.7510 18.2556 -0.8627
11.2843 47.4714 -2.1992
9.4943 47.4528 -2.1811
7.7313 47.4344 -2.1661
4.4761 35.4316 -1.6096
4.2659 47.3982 -2.1449
2.5542 47.3803 -2.1386
0.8504 47.3626 -2.1350
-0.8500 47.3448 -2.1342
-2.5513 47.3271 -2.1362
-4.2579 47.3092 -2.1409
-5.9743 47.2913 -2.1484
-7.7050 47.2733 -2.1588
-9.4548 47.2550 -2.1721
-11.2285 47.2365 -2.1883
-13.0313 47.2177 -2.2077
-14.8687 47.1985 -2.2304
-25.5061 41.0000 -2.1763
-39.9995 20.6074 -2.0280
-40.6774 14.0291 -1.9394
-40.6605 12.4090 -1.9161
-40.6440 10.8254 -1.8957
-40.6278 9.2730 -1.8782
-12.4837 2.3814 -0.5728
-40.5294 6.2329 -1.8482
-40.4760 4.7446 -1.8368
-40.3939 3.2703 -1.8266
-40.4454 1.8164 -1.8248
-40.4303 0.3629 -1.8223
-40.4151 -1.0886 -1.8222
-40.3040 -2.5357 -1.8201
-40.2888 -3.9909 -1.8248
-38.1957 -5.1740 -1.7372
-38.1811 -6.5754 -1.7462
-38.1663 -7.9932 -1.7575
-38.1513 -9.4314 -1.7713
-38.1360 -10.8942 -1.7876
-38.1204 -12.3861 -1.8066
-38.1045 -13.9120 -1.8283
-12.2945 -17.5770 -0.9668
-11.3771 -20.6948 -1.0644
8.9934 -6.1711 -0.4301
19.9370 -12.6524 -0.9311
19.9267 -11.6642 -0.9104
19.9168 -10.7177 -0.8918
19.9073 -9.8079 -0.8751
19.8981 -8.9306 -0.8600
19.8893 -8.0820 -0.8465
19.8807 -7.2584 -0.8345
19.9201 -6.4724 -0.8259
19.8642 -5.6745 -0.8146
21.2733 -5.2590 -0.8641
24.2828 -5.0856 -0.9783
24.2734 -4.1803 -0.9712
24.2641 -3.2868 -0.9655
24.2548 -2.4026 -0.9611
24.2457 -1.5254 -0.9579
22.3290 -0.6014 -0.8808
22.3206 0.2004 -0.8802
22.3122 1.0020 -0.8807
22.3039 1.8057 -0.8823
28.4652 3.3367 -1.1301
28.4544 4.3759 -1.1352
33.7473 11.6390 -1.4076
38.2125 29.3669 -1.9003
36.9365 30.5565 -1.8902
6.7920 17.1547 -0.7275
6.0639 17.0833 -0.7148
5.7510 18.2556 -0.7547
11.2843 47.4714 -1.9240
9.4943 47.4528 -1.9082
7.7313 47.4344 -1.8951
4.4761 35.4316 -1.4082
4.2659 47.3982 -1.8765
2.5542 47.3803 -1.8710
0.8504 47.3626 -1.8679
-0.8500 47.3448 -1.8672
-2.5513 47.3271 -1.8689
-4.2579 47.3092 -1.8730
-5.9743 47.2913 -1.8796
-7.7050 47.2733 -1.8886
-9.4548 47.2550 -1.9002
-11.2285 47.2365 -1.9145
-13.0313 47.2177 -1.9314
-14.8687 47.1985 -1.9512
-25.5055 40.9992 -1.9039
-39.9995 20.6074 -1.7742
-40.5812 13.9959 -1.6926
-40.6605 12.4090 -1.6763
-40.6440 10.8254 -1.6585
-40.6278 9.2730 -1.6432
-12.4833 2.3813 -0.5011
-40.6415 6.2501 -1.6214
-40.4760 4.7446 -1.6069
-40.5060 3.2794 -1.6024
-40.4454 1.8164 -1.5964
-40.4303 0.3629 -1.5943
-40.4151 -1.0886 -1.5942
-40.4000 -2.5417 -1.5962
-40.3847 -4.0004 -1.6002
-38.1957 -5.1740 -1.5199
-38.1811 -6.5754 -1.5277
-38.1663 -7.9932 -1.5376
-38.1513 -9.4314 -1.5496
-38.1360 -10.8942 -1.5639
-38.1204 -12.3861 -1.5805
-38.1045 -13.9119 -1.5995
-12.2942 -17.5766 -0.8458
-11.3771 -20.6948 -0.9312
8.9933 -6.1710 -0.3686
19.9370 -12.6524 -0.7980
21.0917 -12.3462 -0.8259
21.5214 -11.5811 -0.8259
21.9232 -10.8011 -0.8259
20.0783 -9.0115 -0.7437
22.6416 -9.2004 -0.8259
22.9573 -8.3817 -0.8259
23.2434 -7.5522 -0.8259
19.8642 -5.6745 -0.6981
23.7253 -5.8652 -0.8259
24.2828 -5.0856 -0.8384
24.2734 -4.1803 -0.8324
24.2641 -3.2868 -0.8275
24.2548 -2.4026 -0.8237
24.2457 -1.5254 -0.8210
22.3290 -0.6014 -0.7548
24.4386 0.2194 -0.8259
24.4149 1.0965 -0.8259
22.3039 1.8057 -0.7562
28.4652 3.3367 -0.9685
28.4544 4.3759 -0.9729
33.7473 11.6389 -1.2064
38.2125 29.3669 -1.6286
36.9365 30.5565 -1.6200
6.7920 17.1547 -0.6235
6.0639 17.0833 -0.6126
5.7510 18.2556 -0.6468
11.2843 47.4714 -1.6489
9.4943 47.4528 -1.6354
7.7313 47.4344 -1.6241
4.4761 35.4316 -1.2069
4.2659 47.3982 -1.6082
2.5542 47.3803 -1.6035
0.8504 47.3626 -1.6008
-0.8500 47.3448 -1.6002
-2.5513 47.3271 -1.6017
-4.2579 47.3092 -1.6052
-5.9743 47.2913 -1.6108
-7.7050 47.2733 -1.6186
-9.4548 47.2550 -1.6286
-11.2285 47.2365 -1.6408
-13.0313 47.2177 -1.6553
-14.8687 47.1985 -1.6723
-25.5050 40.9983 -1.6317
-39.9995 20.6074 -1.5206
-40.5812 13.9959 -1.4506
-40.6605 12.4090 -1.4366
-40.6440 10.8254 -1.4214
-40.6278 9.2730 -1.4083
-12.4830 2.3813 -0.4294
-40.6415 6.2501 -1.3896
-40.4760 4.7446 -1.3772
-40.5060 3.2794 -1.3733
-40.4454 1.8164 -1.3682
-40.4303 0.3629 -1.3663
-40.4151 -1.0886 -1.3663
-40.4000 -2.5417 -1.3679
-40.3847 -4.0004 -1.3714
-38.1957 -5.1740 -1.3025
-38.1818 -6.5755 -1.3093
-38.1663 -7.9932 -1.3177
-38.1518 -9.4315 -1.3281
-38.1360 -10.8942 -1.3403
-38.1204 -12.3861 -1.3545
-38.1045 -13.9120 -1.3708
-12.2939 -17.5761 -0.7248
-11.3771 -20.6948 -0.7981
8.9931 -6.1709 -0.3071
19.9370 -12.6524 -0.6649
24.3787 -14.2703 -0.7954
25.8287 -13.8990 -0.8259
24.8957 -12.2656 -0.7815
20.0783 -9.0115 -0.6197
27.1732 -11.0418 -0.8259
24.5543 -8.9648 -0.7360
27.8954 -9.0638 -0.8259
19.8642 -5.6745 -0.5817
28.4738 -7.0390 -0.8259
24.2828 -5.0856 -0.6986
24.2734 -4.1803 -0.6935
24.2641 -3.2868 -0.6895
24.2548 -2.4026 -0.6863
24.2457 -1.5254 -0.6841
22.3290 -0.6014 -0.6290
29.3297 0.2633 -0.8259
29.3014 1.3159 -0.8259
22.3039 1.8057 -0.6301
29.1315 3.4148 -0.8259
28.4544 4.3759 -0.8106
33.7473 11.6389 -1.0052
38.2125 29.3669 -1.3570
36.9365 30.5565 -1.3498
6.7920 17.1547 -0.5195
6.0639 17.0833 -0.5104
5.7510 18.2556 -0.5389
11.2843 47.4714 -1.3739
9.4943 47.4528 -1.3626
7.7313 47.4344 -1.3533
4.4761 35.4316 -1.0056
4.2659 47.3982 -1.3400
2.5542 47.3803 -1.3361
0.8504 47.3626 -1.3338
-0.8500 47.3448 -1.3333
-2.5513 47.3271 -1.3346
-4.2579 47.3092 -1.3375
-5.9743 47.2913 -1.3422
-7.7050 47.2733 -1.3487
-9.4548 47.2550 -1.3570
-11.2285 47.2365 -1.3671
-13.0313 47.2177 -1.3792
-14.8687 47.1985 -1.3934
-25.5045 40.9974 -1.3595
-39.9995 20.6074 -1.2670
-40.5812 13.9959 -1.2087
-40.6605 12.4090 -1.1970
-40.6440 10.8254 -1.1843
-40.6278 9.2730 -1.1734
-12.4827 2.3812 -0.3578
-40.6415 6.2501 -1.1578
-40.4760 4.7446 -1.1475
-40.5060 3.2794 -1.1443
-40.4454 1.8164 -1.1400
-40.4303 0.3629 -1.1385
-40.4151 -1.0886 -1.1384
-40.4000 -2.5417 -1.1398
-40.3847 -4.0004 -1.1427
-38.1957 -5.1740 -1.0853
-38.2366 -6.5850 -1.0925
-38.1663 -7.9932 -1.0980
-38.2068 -9.4452 -1.1082
-38.1360 -10.8942 -1.1168
-38.1759 -12.4041 -1.1303
-38.1045 -13.9120 -1.1422
-12.2935 -17.5757 -0.6039
-11.3771 -20.6948 -0.6650
8.9929 -6.1707 -0.2457
19.9370 -12.6524 -0.5319
24.3787 -14.2703 -0.6363
24.8957 -12.2656 -0.6251
20.0783 -9.0115 -0.4957
30.3072 -12.3153 -0.7369
24.5543 -8.9648 -0.5888
28.5970 -9.2917 -0.6773
19.8642 -5.6745 -0.4653
35.7303 -8.8329 -0.8290
24.2828 -5.0856 -0.5588
24.2734 -4.1803 -0.5548
24.2641 -3.2868 -0.5515
24.2548 -2.4026 -0.5490
24.2457 -1.5254 -0.5472
22.3290 -0.6014 -0.5031
22.3039 1.8057 -0.5040
28.4544 4.3759 -0.6484
33.7473 11.6389 -0.8041
38.2125 29.3669 -1.0855
36.9365 30.5565 -1.0798
6.7920 17.1547 -0.4156
6.0639 17.0833 -0.4083
5.7510 18.2556 -0.4311
11.2843 47.4714 -1.0991
9.4943 47.4528 -1.0900
7.7313 47.4344 -1.0825
4.4761 35.4316 -0.8044
4.2659 47.3982 -1.0719
2.5542 47.3803 -1.0687
0.8504 47.3626 -1.0670
-0.8500 47.3448 -1.0666
-2.5513 47.3271 -1.0675
-4.2579 47.3092 -1.0699
-5.9743 47.2913 -1.0737
-7.7050 47.2733 -1.0788
-9.4548 47.2550 -1.0855
-11.2285 47.2365 -1.0936
-13.0313 47.2177 -1.1033
-14.8687 47.1985 -1.1146
-25.5039 40.9965 -1.0875
-39.9995 20.6074 -1.0135
-40.5812 13.9959 -0.9669
-40.6605 12.4090 -0.9575
-40.6440 10.8254 -0.9474
-40.6278 9.2730 -0.9386
-12.4824 2.3811 -0.2862
-40.6415 6.2501 -0.9262
-40.4760 4.7446 -0.9179
-40.5060 3.2794 -0.9153
-40.4454 1.8164 -0.9119
-40.4303 0.3629 -0.9107
-40.4151 -1.0886 -0.9106
-40.4000 -2.5417 -0.9118
-40.3847 -4.0004 -0.9141
-38.1957 -5.1740 -0.8682
-38.2366 -6.5850 -0.8739
-38.1663 -7.9932 -0.8783
-38.2068 -9.4451 -0.8865
-38.1360 -10.8942 -0.8933
-38.1759 -12.4041 -0.9041
-38.1045 -13.9120 -0.9137
-12.2932 -17.5752 -0.4831
-11.3771 -20.6948 -0.5319
8.9927 -6.1706 -0.1842
19.9370 -12.6524 -0.3989
24.3787 -14.2702 -0.4772
24.8957 -12.2656 -0.4688
20.0783 -9.0115 -0.3718
30.3072 -12.3153 -0.5526
24.5543 -8.9648 -0.4415
28.5970 -9.2917 -0.5079
19.8642 -5.6745 -0.3490
35.7303 -8.8329 -0.6217
24.2828 -5.0856 -0.4191
24.2734 -4.1803 -0.4161
24.2641 -3.2868 -0.4136
24.2548 -2.4026 -0.4117
24.2457 -1.5254 -0.4104
22.3290 -0.6014 -0.3773
22.3039 1.8057 -0.3780
28.4544 4.3759 -0.4863
33.7473 11.6390 -0.6030
38.2125 29.3669 -0.8141
36.9365 30.5565 -0.8098
6.7920 17.1547 -0.3117
6.0639 17.0833 -0.3062
5.7510 18.2556 -0.3233
11.2843 47.4714 -0.8242
9.4943 47.4528 -0.8174
7.7313 47.4344 -0.8118
4.4761 35.4316 -0.6033
4.2659 47.3982 -0.8039
2.5542 47.3803 -0.8015
0.8504 47.3626 -0.8002
-0.8500 47.3448 -0.7999
-2.5513 47.3271 -0.8006
-4.2579 47.3092 -0.8024
-5.9743 47.2913 -0.8052
-7.7050 47.2733 -0.8091
-9.4548 47.2550 -0.8140
-11.2285 47.2365 -0.8201
-13.0313 47.2177 -0.8274
-14.8687 47.1985 -0.8359
-25.5034 40.9956 -0.8156
-39.9995 20.6074 -0.7601
-40.5812 13.9959 -0.7251
-40.6605 12.4090 -0.7181
-40.6440 10.8254 -0.7105
-40.6278 9.2730 -0.7039
-12.4821 2.3811 -0.2146
-40.6415 6.2501 -0.6946
-40.4760 4.7446 -0.6884
-40.5060 3.2794 -0.6865
-40.4454 1.8164 -0.6839
-40.4303 0.3629 -0.6830
-40.4151 -1.0886 -0.6829
-40.4000 -2.5417 -0.6838
-40.3847 -4.0004 -0.6855
-38.1957 -5.1740 -0.6511
-38.2366 -6.5850 -0.6554
-38.1663 -7.9932 -0.6587
-38.2068 -9.4451 -0.6648
-38.1360 -10.8942 -0.6700
-38.1759 -12.4041 -0.6780
-38.1045 -13.9120 -0.6852
-12.2929 -17.5748 -0.3623
-11.3771 -20.6948 -0.3989
8.9925 -6.1705 -0.1228
19.9370 -12.6524 -0.2659
24.3787 -14.2702 -0.3181
24.8957 -12.2656 -0.3125
20.0783 -9.0115 -0.2478
30.3072 -12.3153 -0.3684
24.5543 -8.9648 -0.2943
28.5970 -9.2917 -0.3386
19.8642 -5.6745 -0.2326
35.7303 -8.8329 -0.4145
24.2828 -5.0856 -0.2794
24.2734 -4.1803 -0.2774
24.2641 -3.2868 -0.2757
24.2548 -2.4026 -0.2745
24.2457 -1.5254 -0.2736
22.3290 -0.6014 -0.2515
22.3039 1.8057 -0.2520
28.4544 4.3759 -0.3242
33.7473 11.6390 -0.4020
38.2125 29.3669 -0.5427
36.9365 30.5565 -0.5398
6.7920 17.1547 -0.2078
6.0639 17.0833 -0.2041
5.7510 18.2556 -0.2155
11.2843 47.4714 -0.5495
9.4943 47.4528 -0.5449
7.7313 47.4344 -0.5412
4.4761 35.4316 -0.4022
4.2659 47.3982 -0.5359
2.5542 47.3803 -0.5343
0.8504 47.3626 -0.5334
-0.8500 47.3448 -0.5332
-2.5513 47.3271 -0.5337
-4.0538 45.0412 -0.5092
-5.9743 47.2913 -0.5368
-7.7050 47.2733 -0.5394
-9.0217 45.0906 -0.5178
-11.2285 47.2365 -0.5467
-13.0313 47.2177 -0.5516
-14.8687 47.1985 -0.5572
-25.5028 40.9948 -0.5437
-39.9995 20.6074 -0.5067
-40.5812 13.9959 -0.4834
-40.6605 12.4090 -0.4787
-40.6440 10.8254 -0.4736
-40.6278 9.2730 -0.4693
-12.4817 2.3810 -0.1431
-40.6415 6.2501 -0.4630
-40.4760 4.7446 -0.4589
-40.5060 3.2794 -0.4576
-40.4454 1.8164 -0.4559
-40.4303 0.3629 -0.4553
-40.4151 -1.0886 -0.4553
-40.3040 -2.5357 -0.4547
-40.3847 -4.0004 -0.4570
-38.1957 -5.1740 -0.4340
-38.2366 -6.5850 -0.4369
-38.1663 -7.9932 -0.4391
-38.2068 -9.4451 -0.4432
-38.1360 -10.8942 -0.4466
-38.1759 -12.4041 -0.4520
-38.1045 -13.9120 -0.4568
-12.2926 -17.5743 -0.2415
-11.3771 -20.6948 -0.2659
8.9923 -6.1703 -0.0614
19.9370 -12.6524 -0.1329
24.3787 -14.2702 -0.1590
24.8958 -12.2656 -0.1563
20.0783 -9.0115 -0.1239
30.3072 -12.3153 -0.1842
24.5543 -8.9648 -0.1472
28.5970 -9.2917 -0.1693
19.8642 -5.6745 -0.1163
35.7303 -8.8329 -0.2072
24.2828 -5.0856 -0.1397
24.2734 -4.1803 -0.1387
24.2641 -3.2868 -0.1379
24.2548 -2.4026 -0.1372
24.2457 -1.5254 -0.1368
22.3290 -0.6014 -0.1258
22.3039 1.8057 -0.1260
28.4544 4.3759 -0.1621
33.7473 11.6389 -0.2010
38.2125 29.3669 -0.2713
36.9365 30.5565 -0.2699
21.6068 44.8671 -0.2804
19.6640 44.8871 -0.2759
6.7920 17.1547 -0.1039
6.0639 17.0833 -0.1021
5.7510 18.2556 -0.1078
12.3844 44.8737 -0.2621
10.6932 44.9846 -0.2603
9.0044 45.0042 -0.2584
7.3383 45.0235 -0.2568
4.4761 35.4316 -0.2011
4.0537 45.0403 -0.2546
2.4289 45.0555 -0.2540
0.8094 45.0825 -0.2539
-0.8097 45.0996 -0.2540
-2.4322 45.1166 -0.2544
-4.0538 45.0410 -0.2546
-5.7035 45.1481 -0.2562
-7.3617 45.1667 -0.2577
-9.0216 45.0903 -0.2589
-10.7438 45.1978 -0.2616
-12.4791 45.2169 -0.2641
-14.2505 45.2363 -0.2670
-16.0613 45.2483 -0.2703
-17.9211 45.2637 -0.2741
-19.8359 45.2795 -0.2783
-25.5023 40.9939 -0.2718
-39.9995 20.6074 -0.2533
-40.6774 14.0291 -0.2423
-40.6605 12.4090 -0.2394
-40.6440 10.8254 -0.2368
-40.6278 9.2730 -0.2346
-12.4814 2.3810 -0.0715
-40.5961 6.2432 -0.2313
-40.4760 4.7446 -0.2294
-40.4607 3.2757 -0.2285
-40.4454 1.8164 -0.2279
-40.4303 0.3629 -0.2276
-40.4151 -1.0886 -0.2276
-40.4000 -2.5417 -0.2279
-40.3847 -4.0004 -0.2285
-38.1957 -5.1740 -0.2170
-38.2366 -6.5850 -0.2184
-38.1663 -7.9932 -0.2195
-38.2068 -9.4451 -0.2216
-38.1360 -10.8942 -0.2233
-38.1759 -12.4041 -0.2260
-38.1045 -13.9120 -0.2284
-12.2923 -17.5739 -0.1207
-11.3771 -20.6948 -0.1330
8.9921 -6.1702 -0.0000
19.9370 -12.6524 0.0000
24.3787 -14.2703 0.0000
24.8957 -12.2656 0.0000
20.0783 -9.0115 0.0000
30.3072 -12.3153 -0.0000
24.5543 -8.9648 0.0000
28.5970 -9.2917 -0.0000
19.8642 -5.6745 0.0000
35.7303 -8.8329 -0.0000
24.2828 -5.0856 0.0000
24.2734 -4.1803 0.0000
24.2641 -3.2868 -0.0000
24.2548 -2.4026 0.0000
24.2457 -1.5254 0.0000
22.3290 -0.6014 0.0000
22.3039 1.8057 -0.0000
28.4544 4.3759 0.0000
33.7473 11.6389 0.0000
38.2125 29.3669 0.0000
36.9365 30.5565 -0.0000
21.6070 44.8675 -0.0000
19.6642 44.8876 -0.0000
6.7920 17.1547 0.0000
6.0639 17.0833 0.0000
5.7510 18.2556 -0.0000
12.3843 44.8734 -0.0000
10.6931 44.9843 0.0000
9.0044 45.0039 0.0000
7.3383 45.0232 -0.0000
4.4761 35.4316 0.0000
4.0537 45.0407 0.0000
2.4289 45.0559 -0.0000
0.8094 45.0821 -0.0000
-0.8097 45.0991 -0.0000
-2.4322 45.1162 -0.0000
-4.0538 45.0408 0.0000
-5.7035 45.1479 -0.0000
-7.3616 45.1665 0.0000
-9.0216 45.0901 -0.0000
-10.7438 45.1976 -0.0000
-12.4790 45.2166 0.0000
-14.2505 45.2360 0.0000
-16.0612 45.2478 -0.0000
-17.9210 45.2632 -0.0000
-19.8357 45.2791 -0.0000
-25.5017 40.9930 -0.0000
-39.9995 20.6074 0.0000
-40.6774 14.0291 0.0000
-40.6605 12.4090 -0.0000
-40.6440 10.8254 0.0000
-40.6278 9.2730 0.0000
-12.4811 2.3809 -0.0000
-40.5961 6.2432 0.0000
-40.4760 4.7446 -0.0000
-40.4607 3.2757 -0.0000
-40.4454 1.8164 0.0000
-40.4303 0.3629 -0.0000
-40.4151 -1.0886 -0.0000
-40.4000 -2.5417 0.0000
-40.3847 -4.0004 0.0000
-38.1957 -5.1740 0.0000
-38.2366 -6.5850 0.0000
-38.1663 -7.9932 0.0000
-38.2068 -9.4451 0.0000
-38.1360 -10.8942 -0.0000
-38.1759 -12.4041 0.0000
-38.1045 -13.9120 0.0000
-12.2920 -17.5735 -0.0000
-11.3771 -20.6948 -0.0000
